<svg width="119" height="119" viewBox="0 0 119 119" fill="none" xmlns="http://www.w3.org/2000/svg">
<circle cx="59.5" cy="59.5" r="58.5" stroke="white" stroke-width="2"/>
<path d="M65.9053 57.101C65.9897 57.0166 66.0568 56.9163 66.1025 56.8059C66.1482 56.6955 66.1717 56.5772 66.1717 56.4578C66.1717 56.3383 66.1482 56.22 66.1025 56.1097C66.0568 55.9993 65.9897 55.899 65.9053 55.8145C65.8208 55.7301 65.7205 55.6631 65.6101 55.6173C65.4998 55.5716 65.3815 55.5481 65.262 55.5481C65.1426 55.5481 65.0243 55.5716 64.9139 55.6173C64.8035 55.6631 64.7033 55.7301 64.6188 55.8145L58.1682 62.2651L55.0335 59.1304C54.8629 58.9598 54.6315 58.864 54.3903 58.864C54.149 58.864 53.9176 58.9598 53.747 59.1304C53.5764 59.301 53.4806 59.5324 53.4806 59.7737C53.4806 60.0149 53.5764 60.2463 53.747 60.4169L57.5159 64.1858C57.689 64.3517 57.9194 64.4443 58.1592 64.4443C58.3989 64.4443 58.6293 64.3517 58.8024 64.1858L65.9053 57.101Z" fill="white"/>
<path d="M59.0018 78C55.4417 78.0004 51.9614 76.945 49.0011 74.9673C46.0407 72.9897 43.7334 70.1786 42.3707 66.8896C41.008 63.6005 40.6513 59.9813 41.3457 56.4895C42.04 52.9977 43.7542 49.7903 46.2714 47.2727C48.7887 44.7552 51.996 43.0407 55.4877 42.346C58.9794 41.6513 62.5987 42.0077 65.8879 43.37C69.1771 44.7323 71.9884 47.0394 73.9663 49.9996C75.9443 52.9597 77 56.4399 77 60C76.9947 64.772 75.0969 69.347 71.7227 72.7215C68.3486 76.0959 63.7738 77.9942 59.0018 78ZM59.0018 43.8138C55.8 43.8134 52.6699 44.7626 50.0075 46.5412C47.3452 48.3198 45.27 50.848 44.0446 53.8061C42.8191 56.7641 42.4984 60.0192 43.1229 63.1595C43.7475 66.2998 45.2893 69.1844 47.5533 71.4485C49.8174 73.7125 52.702 75.2543 55.8423 75.8789C58.9827 76.5035 62.2377 76.1827 65.1957 74.9573C68.1538 73.7318 70.682 71.6567 72.4606 68.9943C74.2393 66.3319 75.1884 63.2019 75.188 60C75.1828 55.7088 73.4757 51.5948 70.4414 48.5604C67.407 45.5261 63.2931 43.8191 59.0018 43.8138Z" fill="white"/>
</svg>
