<svg width="119" height="119" viewBox="0 0 119 119" fill="none" xmlns="http://www.w3.org/2000/svg">
<circle cx="59.5" cy="59.5" r="58.5" stroke="white" stroke-width="2"/>
<path d="M59.0018 78C57.3834 78 56.208 76.6564 55.1718 75.4684C54.6647 74.7835 54.0305 74.2027 53.3038 73.7577C52.4376 73.5394 51.5371 73.4921 50.6528 73.6184C49.9014 73.7875 49.1227 73.7954 48.368 73.6414C47.6134 73.4874 46.9 73.1751 46.2749 72.7251C45.8251 72.0999 45.5129 71.3865 45.359 70.6319C45.205 69.8773 45.2127 69.0986 45.3816 68.3472C45.507 67.4628 45.4597 66.5626 45.2423 65.6962C44.7973 64.9695 44.2165 64.3353 43.5316 63.8282C42.3472 62.792 41 61.6184 41 59.9982C41 58.3779 42.3436 57.2043 43.5316 56.1682C44.217 55.6609 44.7979 55.026 45.2423 54.2984C45.4597 53.4326 45.507 52.5329 45.3816 51.6492C45.2125 50.8978 45.2046 50.1191 45.3586 49.3644C45.5126 48.6097 45.8249 47.8963 46.2749 47.2712C46.8995 46.8195 47.6128 46.5053 48.3678 46.3494C49.1227 46.1936 49.9021 46.1996 50.6546 46.3671C51.5375 46.4976 52.4374 46.4546 53.3038 46.2405C54.0305 45.7962 54.6647 45.216 55.1718 44.5316C56.208 43.3472 57.3834 42 59.0018 42C60.6203 42 61.7957 43.3418 62.8318 44.5316C63.3391 45.217 63.974 45.7979 64.7016 46.2423C65.5667 46.4598 66.4659 46.5071 67.349 46.3816C68.1015 46.2144 68.8808 46.2086 69.6357 46.3644C70.3906 46.5203 71.104 46.8343 71.7288 47.2857C72.1808 47.9102 72.4952 48.6235 72.6511 49.3785C72.8069 50.1335 72.8007 50.913 72.6329 51.6655C72.5075 52.5486 72.5548 53.4477 72.7722 54.3128C73.2166 55.0405 73.7975 55.6754 74.4828 56.1826C75.6673 57.2188 77.0145 58.3942 77.0145 60.0127C77.0145 61.6311 75.6709 62.8065 74.4828 63.8427C73.7985 64.3498 73.2183 64.984 72.774 65.7107C72.5566 66.5764 72.5093 67.4761 72.6347 68.3599C72.8026 69.1123 72.8087 69.8918 72.6529 70.6468C72.497 71.4018 72.1826 72.1151 71.7306 72.7396C71.1052 73.189 70.3917 73.5009 69.6372 73.6548C68.8827 73.8088 68.1041 73.8013 67.3526 73.6329C66.4689 73.5076 65.5692 73.5549 64.7034 73.7722C63.9762 74.2171 63.3413 74.7979 62.8336 75.4828C61.7957 76.6564 60.6293 78 59.0018 78ZM51.9367 71.7559C52.6377 71.7299 53.337 71.8423 53.9946 72.0868C54.9895 72.6205 55.854 73.3677 56.5262 74.2749C57.3472 75.2152 58.1971 76.1863 58.9946 76.1863C59.792 76.1863 60.642 75.2152 61.4647 74.2749C62.1366 73.3674 63.0012 72.6201 63.9964 72.0868C65.112 71.741 66.2904 71.6472 67.4467 71.8119C68.6618 71.8861 69.9168 71.9656 70.4358 71.4503C70.9548 70.9349 70.8788 69.6745 70.7975 68.4611C70.6338 67.3042 70.7276 66.1255 71.0723 65.009C71.6059 64.0146 72.3524 63.1501 73.2586 62.4774C74.1989 61.6564 75.17 60.8065 75.17 60.009C75.17 59.2116 74.1989 58.3617 73.2586 57.5407C72.3522 56.8683 71.6056 56.0037 71.0723 55.009C70.7275 53.8933 70.6337 52.7151 70.7975 51.5588C70.8716 50.3454 70.9494 49.0904 70.4358 48.5696C69.9222 48.0488 68.66 48.1248 67.4467 48.208C66.2904 48.3716 65.1122 48.2777 63.9964 47.9331C63.0017 47.3998 62.1372 46.6533 61.4647 45.7468C60.6438 44.8065 59.7939 43.8354 58.9964 43.8354C58.1989 43.8354 57.349 44.8065 56.528 45.7468C55.8553 46.653 54.9909 47.3995 53.9964 47.9331C52.8796 48.2761 51.7013 48.3699 50.5443 48.208C49.3327 48.1338 48.0778 48.0561 47.5552 48.5696C47.0325 49.0832 47.1139 50.3436 47.1935 51.557C47.3535 52.709 47.2571 53.8822 46.9114 54.9928C46.378 55.9879 45.6308 56.8525 44.7233 57.5244C43.783 58.3454 42.8119 59.1971 42.8119 59.9928C42.8119 60.7884 43.783 61.6401 44.7233 62.4629C45.6303 63.1353 46.3774 63.9998 46.9114 64.9946C47.2569 66.1115 47.3508 67.291 47.1863 68.4485C47.1121 69.6637 47.0344 70.9186 47.5479 71.4376C48.0615 71.9566 49.3201 71.8807 50.5371 71.7993C51.0054 71.7902 51.4756 71.7559 51.9367 71.7559Z" fill="white"/>
<path d="M63.5225 62.7145C63.5197 63.6728 63.1377 64.591 62.4601 65.2687C61.7825 65.9463 60.8642 66.3283 59.9059 66.3311V68.1575C59.9012 68.3942 59.8038 68.6195 59.6348 68.7852C59.4657 68.9509 59.2385 69.0436 59.0018 69.0436C58.884 69.0455 58.7671 69.024 58.6577 68.9804C58.5483 68.9368 58.4487 68.8719 58.3646 68.7895C58.2805 68.707 58.2135 68.6087 58.1677 68.5003C58.1219 68.3918 58.0981 68.2753 58.0976 68.1575V66.3311H55.8372C55.5974 66.3311 55.3674 66.2359 55.1979 66.0663C55.0283 65.8967 54.933 65.6668 54.933 65.427C54.933 65.1872 55.0283 64.9572 55.1979 64.7876C55.3674 64.6181 55.5974 64.5228 55.8372 64.5228H59.9059C60.3855 64.5228 60.8455 64.3323 61.1846 63.9932C61.5237 63.654 61.7142 63.1941 61.7142 62.7145C61.7142 62.2349 61.5237 61.7749 61.1846 61.4358C60.8455 61.0967 60.3855 60.9062 59.9059 60.9062H58.0976C57.1384 60.9062 56.2185 60.5251 55.5402 59.8469C54.862 59.1686 54.481 58.2487 54.481 57.2895C54.481 56.3303 54.862 55.4104 55.5402 54.7322C56.2185 54.0539 57.1384 53.6729 58.0976 53.6729V51.7796C58.1022 51.6661 58.1294 51.5547 58.1775 51.4518C58.2256 51.349 58.2938 51.2567 58.3779 51.1804C58.4621 51.1042 58.5606 51.0455 58.6677 51.0077C58.7748 50.9699 58.8884 50.9538 59.0018 50.9604C59.229 50.9505 59.4511 51.0302 59.6202 51.1824C59.7893 51.3346 59.8919 51.5471 59.9059 51.7742V53.6729H62.1663C62.4061 53.6729 62.6361 53.7682 62.8056 53.9377C62.9752 54.1073 63.0705 54.3373 63.0705 54.5771C63.0667 54.8157 62.9703 55.0435 62.8015 55.2123C62.6328 55.381 62.4049 55.4775 62.1663 55.4812H58.0976C57.618 55.4812 57.158 55.6717 56.8189 56.0109C56.4798 56.35 56.2893 56.8099 56.2893 57.2895C56.2893 57.7691 56.4798 58.2291 56.8189 58.5682C57.158 58.9073 57.618 59.0979 58.0976 59.0979H59.9059C60.8651 59.0979 61.785 59.4789 62.4633 60.1571C63.1415 60.8354 63.5225 61.7553 63.5225 62.7145Z" fill="white"/>
</svg>
