<svg width="20" height="26" viewBox="0 0 20 26" fill="none" xmlns="http://www.w3.org/2000/svg">
<path d="M9.94337 25.0397C9.60516 25.0413 9.2713 24.9634 8.96871 24.8124C8.66612 24.6613 8.40326 24.4412 8.20132 24.1699L1.83102 15.6837C0.777002 14.1974 0.152011 12.4498 0.0243998 10.6321C-0.103211 8.81437 0.271474 6.99659 1.10748 5.37752C1.94348 3.75845 3.2086 2.40044 4.76449 1.45202C6.32038 0.503592 8.10711 0.00127518 9.92927 2.42469e-06C11.7514 -0.00127033 13.5389 0.49855 15.0961 1.4448C16.6533 2.39105 17.9203 3.74729 18.7586 5.36519C19.5968 6.98309 19.9741 8.80035 19.849 10.6182C19.7239 12.4361 19.1014 14.1846 18.0494 15.6724L11.6867 24.1674C11.4847 24.4392 11.2218 24.6597 10.919 24.8113C10.6161 24.9628 10.282 25.041 9.94337 25.0397ZM9.9333 1.29172C7.80588 1.28504 5.75199 2.06972 4.17095 3.49319C2.58549 4.90886 1.57502 6.8574 1.33138 8.9689C1.08775 11.0804 1.62791 13.2079 2.84931 14.9474L9.20703 23.4147C9.29227 23.5292 9.40319 23.6221 9.53085 23.6859C9.65852 23.7497 9.79938 23.7827 9.94211 23.7822C10.0851 23.7824 10.2263 23.7493 10.3543 23.6855C10.4823 23.6217 10.5937 23.529 10.6797 23.4147L17.0286 14.9386C17.8949 13.7128 18.4273 12.2827 18.5737 10.7889C18.72 9.29503 18.4753 7.7888 17.8634 6.41818C17.2515 5.04756 16.2936 3.85968 15.0838 2.97125C13.874 2.08283 12.4538 1.52442 10.9629 1.35088C10.6211 1.31184 10.2773 1.29209 9.9333 1.29172Z" fill="#FFB15C"/>
<path d="M9.94339 13.1663C9.32102 13.1663 8.71263 12.9818 8.19515 12.636C7.67766 12.2902 7.27434 11.7988 7.03617 11.2238C6.79799 10.6488 6.73568 10.0161 6.8571 9.40566C6.97851 8.79525 7.27821 8.23455 7.7183 7.79447C8.15838 7.35439 8.71908 7.05469 9.32949 6.93327C9.9399 6.81185 10.5726 6.87417 11.1476 7.11234C11.7226 7.35051 12.2141 7.75384 12.5598 8.27132C12.9056 8.7888 13.0902 9.39719 13.0902 10.0196C13.0902 10.8541 12.7586 11.6545 12.1685 12.2447C11.5784 12.8348 10.778 13.1663 9.94339 13.1663ZM9.94339 8.13151C9.56997 8.13151 9.20493 8.24224 8.89444 8.4497C8.58396 8.65716 8.34196 8.95204 8.19906 9.29704C8.05615 9.64203 8.01876 10.0217 8.09161 10.3879C8.16447 10.7542 8.34429 11.0906 8.60833 11.3546C8.87238 11.6187 9.2088 11.7985 9.57505 11.8713C9.9413 11.9442 10.3209 11.9068 10.6659 11.7639C11.0109 11.621 11.3058 11.379 11.5133 11.0685C11.7207 10.758 11.8314 10.393 11.8314 10.0196C11.8314 9.51882 11.6325 9.03859 11.2784 8.68451C10.9244 8.33043 10.4441 8.13151 9.94339 8.13151Z" fill="#FFB15C"/>
</svg>
