<svg width="119" height="119" viewBox="0 0 119 119" fill="none" xmlns="http://www.w3.org/2000/svg">
<circle cx="59.5" cy="59.5" r="58.5" stroke="white" stroke-width="2"/>
<path d="M46.2211 68.3728C45.8747 68.803 45.9427 69.4325 46.3728 69.7789C46.803 70.1253 47.4325 70.0573 47.7789 69.6272L46.2211 68.3728ZM55.209 58.8049L55.9879 58.1777L55.209 57.2104L54.4301 58.1777L55.209 58.8049ZM60.0597 64.8293L59.2808 65.4564L60.0597 66.4238L60.8386 65.4564L60.0597 64.8293ZM72.9942 49.8927C72.935 49.3436 72.4418 48.9465 71.8927 49.0058L62.9447 49.9714C62.3956 50.0307 61.9985 50.5239 62.0577 51.073C62.117 51.6221 62.6102 52.0192 63.1593 51.9599L71.1131 51.1015L71.9714 59.0553C72.0307 59.6044 72.5239 60.0015 73.073 59.9423C73.6221 59.883 74.0192 59.3898 73.9599 58.8407L72.9942 49.8927ZM47.7789 69.6272L55.9879 59.432L54.4301 58.1777L46.2211 68.3728L47.7789 69.6272ZM54.4301 59.432L59.2808 65.4564L60.8386 64.2021L55.9879 58.1777L54.4301 59.432ZM60.8386 65.4564L72.7789 50.6272L71.2211 49.3728L59.2808 64.2021L60.8386 65.4564Z" fill="white"/>
</svg>
