<svg width="26" height="26" viewBox="0 0 26 26" fill="none" xmlns="http://www.w3.org/2000/svg">
<path d="M12.5027 25.0054C10.0299 25.0054 7.61264 24.2721 5.55658 22.8983C3.50052 21.5245 1.89802 19.5719 0.951717 17.2873C0.00541738 15.0027 -0.242178 12.4888 0.240242 10.0636C0.722661 7.63827 1.91343 5.4105 3.66196 3.66196C5.4105 1.91343 7.63827 0.722661 10.0636 0.240242C12.4888 -0.242178 15.0027 0.00541738 17.2873 0.951717C19.5719 1.89802 21.5245 3.50052 22.8983 5.55658C24.2721 7.61264 25.0054 10.0299 25.0054 12.5027C25.0017 15.8175 23.6833 18.9955 21.3394 21.3394C18.9955 23.6833 15.8175 25.0017 12.5027 25.0054ZM12.5027 1.25871C10.2789 1.25871 8.10494 1.91816 6.25588 3.15367C4.40681 4.38917 2.96564 6.14524 2.11461 8.19982C1.26358 10.2544 1.04091 12.5152 1.47476 14.6963C1.90861 16.8774 2.9795 18.8809 4.552 20.4534C6.1245 22.0259 8.12799 23.0968 10.3091 23.5307C12.4902 23.9645 14.751 23.7418 16.8056 22.8908C18.8602 22.0398 20.6162 20.5986 21.8518 18.7495C23.0873 16.9005 23.7467 14.7266 23.7467 12.5027C23.7434 9.52164 22.5577 6.66362 20.4497 4.55568C18.3418 2.44774 15.4838 1.26204 12.5027 1.25871Z" fill="#FFB15C"/>
<path d="M20.0549 13.1322H12.5026C12.4227 13.1364 12.3428 13.1228 12.2688 13.0923C12.1948 13.0618 12.1285 13.0153 12.0747 12.956C12.0621 12.956 12.0621 12.9434 12.0495 12.9308C11.9903 12.877 11.9437 12.8107 11.9132 12.7367C11.8828 12.6627 11.8691 12.5828 11.8733 12.5029V4.95064C11.8733 4.78373 11.9396 4.62365 12.0576 4.50562C12.1757 4.3876 12.3357 4.32129 12.5026 4.32129C12.6696 4.32129 12.8296 4.3876 12.9477 4.50562C13.0657 4.62365 13.132 4.78373 13.132 4.95064V11.8735H20.0549C20.2218 11.8735 20.3819 11.9398 20.4999 12.0578C20.6179 12.1759 20.6842 12.3359 20.6842 12.5029C20.6842 12.6698 20.6179 12.8299 20.4999 12.9479C20.3819 13.0659 20.2218 13.1322 20.0549 13.1322Z" fill="#FFB15C"/>
</svg>
