<svg width="154" height="27" viewBox="0 0 154 27" fill="none" xmlns="http://www.w3.org/2000/svg">
<path d="M20.4781 27C20.1238 27 19.7865 26.8474 19.5503 26.5593L14.6416 20.593L9.73298 26.5593C9.37875 26.983 8.78836 27.1186 8.28231 26.8813C3.25557 24.4406 0 19.237 0 13.6267C0 7.72823 3.49173 2.42299 8.88957 0.100891C9.26067 -0.0516556 9.68238 -0.0177563 10.0197 0.202589C10.3571 0.422935 10.5595 0.812776 10.5595 1.21957V13.0843L13.7139 9.3554C13.95 9.0842 14.2705 8.93166 14.6248 8.93166C14.979 8.93166 15.3164 9.0842 15.5357 9.3554L18.7238 13.1013V1.21957C18.7238 0.812776 18.9262 0.439884 19.2635 0.202589C19.6009 -0.0177563 20.0226 -0.0686053 20.4106 0.100891C25.8084 2.42299 29.3002 7.72823 29.3002 13.6267C29.3002 19.237 26.0446 24.4406 21.0178 26.8813C20.8323 26.9661 20.6467 27 20.4781 27ZM8.8727 1.96535C4.48696 4.16881 1.68683 8.66046 1.68683 13.6267C1.68683 18.4574 4.41948 22.966 8.67028 25.1864L13.7139 19.0675C13.95 18.7964 14.2874 18.6269 14.6416 18.6269C14.9959 18.6269 15.3332 18.7794 15.5694 19.0675L20.613 25.1864C24.8638 22.966 27.5965 18.4743 27.5965 13.6267C27.5965 8.66046 24.7963 4.16881 20.4106 1.96535V14.4064C20.4106 14.9149 20.107 15.3725 19.6178 15.542C19.1455 15.7115 18.6226 15.5759 18.2852 15.1861L14.6416 10.8809L10.9981 15.1861C10.6607 15.5759 10.1378 15.7115 9.66551 15.542C9.1932 15.3725 8.8727 14.9149 8.8727 14.4064V1.96535Z" fill="#FBAF5B"/>
<path d="M88.6752 16.8465C88.6752 17.5305 88.5524 18.1618 88.2894 18.688C88.0263 19.2317 87.6755 19.6877 87.2371 20.056C86.7811 20.4243 86.2549 20.7224 85.6411 20.8978C85.0272 21.0732 84.3608 21.1784 83.6593 21.1784C83.1682 21.1784 82.7122 21.1434 82.2913 21.0557C81.8703 20.968 81.4845 20.8627 81.1688 20.74C80.8356 20.6172 80.555 20.4944 80.3445 20.3717C80.1165 20.2489 79.9587 20.1261 79.871 20.0384C79.7833 19.9507 79.7131 19.828 79.6781 19.6877C79.643 19.5474 79.6079 19.3544 79.6079 19.1265C79.6079 18.9511 79.6079 18.8283 79.6254 18.7055C79.643 18.6003 79.6605 18.5126 79.6956 18.4425C79.7307 18.3723 79.7658 18.3197 79.8184 18.3021C79.871 18.2846 79.9236 18.2671 79.9762 18.2671C80.0814 18.2671 80.2393 18.3372 80.4322 18.46C80.6251 18.5828 80.8707 18.7231 81.1864 18.8809C81.4845 19.0388 81.8528 19.1791 82.2913 19.3018C82.7122 19.4421 83.2208 19.4948 83.782 19.4948C84.2029 19.4948 84.6063 19.4421 84.9571 19.3194C85.3079 19.1966 85.6235 19.0388 85.8691 18.8283C86.1322 18.6178 86.3251 18.3548 86.4654 18.0566C86.6057 17.7585 86.6758 17.4077 86.6758 17.0219C86.6758 16.6009 86.5881 16.2502 86.3952 15.952C86.2023 15.6539 85.9568 15.3908 85.6411 15.1628C85.3254 14.9348 84.9746 14.7419 84.5712 14.549C84.1679 14.356 83.7645 14.1807 83.3436 13.9702C82.9226 13.7773 82.5193 13.5668 82.1159 13.3213C81.7125 13.0933 81.3617 12.8127 81.0636 12.497C80.7479 12.1813 80.5024 11.7954 80.3094 11.3745C80.1165 10.9536 80.0113 10.4275 80.0113 9.83116C80.0113 9.21732 80.1165 8.67363 80.3445 8.18256C80.5725 7.69149 80.8882 7.28811 81.274 6.97242C81.6774 6.63919 82.151 6.39365 82.6946 6.21827C83.2383 6.04289 83.7996 6.00781 84.4309 6.00781C84.7642 6.00781 85.0799 6.04289 85.4131 6.0955C85.7463 6.14812 86.062 6.23581 86.3426 6.3235C86.6408 6.41119 86.9038 6.51642 87.1318 6.63919C87.3598 6.76196 87.5177 6.84965 87.5878 6.9198C87.658 6.98996 87.7106 7.04257 87.7281 7.09519C87.7457 7.13026 87.7632 7.18288 87.7808 7.25303C87.7983 7.32318 87.8158 7.39334 87.8158 7.48103C87.8158 7.56872 87.8334 7.69149 87.8334 7.83179C87.8334 7.9721 87.8334 8.09487 87.8158 8.2001C87.7983 8.30533 87.7808 8.39302 87.7632 8.46317C87.7457 8.53333 87.7106 8.58594 87.658 8.62102C87.6229 8.65609 87.5703 8.67363 87.5177 8.67363C87.43 8.67363 87.3072 8.62102 87.1318 8.51579C86.9565 8.41056 86.7285 8.28779 86.4829 8.16502C86.2198 8.02472 85.9217 7.90195 85.5709 7.79672C85.2202 7.69149 84.8168 7.63887 84.3783 7.63887C83.9749 7.63887 83.6066 7.69149 83.3085 7.79672C83.0103 7.90195 82.7473 8.05979 82.5543 8.23517C82.3614 8.41056 82.2036 8.63856 82.1159 8.88409C82.0107 9.12963 81.9756 9.3927 81.9756 9.69085C81.9756 10.0942 82.0633 10.4625 82.2562 10.7431C82.4491 11.0413 82.6946 11.3044 83.0103 11.5324C83.326 11.7604 83.6768 11.9708 84.0802 12.1638C84.4836 12.3567 84.8869 12.5496 85.3079 12.7425C85.7288 12.9354 86.1322 13.1459 86.5355 13.3739C86.9389 13.6019 87.2897 13.8825 87.6054 14.1982C87.9211 14.5139 88.1841 14.8822 88.3771 15.3206C88.57 15.7591 88.6752 16.2502 88.6752 16.8465Z" fill="#FAAF5C"/>
<path d="M59.404 20.5471C59.3689 20.6523 59.3338 20.74 59.2637 20.8102C59.2111 20.8803 59.1234 20.9329 59.0181 20.9505C58.9129 20.9856 58.7726 21.0031 58.6323 21.0206C58.4745 21.0382 58.2815 21.0382 58.0535 21.0382C57.8255 21.0382 57.6151 21.0382 57.4572 21.0206C57.2994 21.0031 57.1591 20.9856 57.0539 20.9505C56.9486 20.9154 56.8609 20.8628 56.8083 20.8102C56.7557 20.74 56.7206 20.6523 56.6856 20.5471L53.5813 9.41029H53.5637L50.705 20.5471C50.6875 20.6523 50.6524 20.74 50.5822 20.8102C50.5296 20.8803 50.4595 20.9329 50.3542 20.9505C50.249 20.9856 50.1262 21.0031 49.9684 21.0206C49.8105 21.0382 49.6176 21.0382 49.3721 21.0382C49.1266 21.0382 48.9161 21.0382 48.7407 21.0206C48.5653 21.0031 48.4426 20.9856 48.3373 20.9505C48.2321 20.9154 48.1444 20.8628 48.0918 20.8102C48.0392 20.74 47.9866 20.6523 47.969 20.5471L44.0755 6.91986C44.0404 6.74447 44.0054 6.60417 44.0054 6.51648C44.0054 6.42878 44.0404 6.34109 44.0931 6.28848C44.1632 6.23586 44.2684 6.20079 44.4088 6.18325C44.5491 6.16571 44.742 6.16571 44.9875 6.16571C45.2155 6.16571 45.4084 6.16571 45.5487 6.18325C45.689 6.20079 45.7943 6.21833 45.8644 6.2534C45.9346 6.27094 45.9872 6.30602 46.0047 6.35863C46.0398 6.41125 46.0574 6.4814 46.0749 6.56909L49.3896 18.9336H49.4072L52.5641 6.58663C52.5816 6.49894 52.6167 6.42878 52.6517 6.37617C52.6868 6.32356 52.7394 6.27094 52.8096 6.2534C52.8797 6.21833 52.985 6.20079 53.1253 6.18325C53.2656 6.16571 53.4585 6.16571 53.6865 6.16571C53.897 6.16571 54.0723 6.16571 54.1951 6.18325C54.3179 6.20079 54.4231 6.21833 54.4933 6.2534C54.5634 6.28848 54.616 6.32356 54.6511 6.37617C54.6862 6.42878 54.7213 6.49894 54.7388 6.58663L58.1237 18.9336H58.1412L61.4033 6.58663C61.4209 6.51648 61.456 6.44632 61.4735 6.39371C61.491 6.34109 61.5437 6.28848 61.6138 6.27094C61.684 6.23586 61.7892 6.21833 61.9295 6.20079C62.0698 6.18325 62.2452 6.18325 62.4556 6.18325C62.6836 6.18325 62.859 6.20079 62.9993 6.21833C63.1396 6.23586 63.2273 6.27094 63.2975 6.32356C63.3501 6.37617 63.3852 6.44632 63.3852 6.55155C63.3852 6.65678 63.3676 6.77955 63.315 6.95493L59.404 20.5471Z" fill="#FAAF5C"/>
<path d="M119.227 20.6348C119.192 20.7225 119.157 20.7926 119.104 20.8453C119.051 20.8979 118.981 20.9329 118.876 20.968C118.788 21.0031 118.666 21.0206 118.508 21.0382C118.367 21.0557 118.174 21.0557 117.946 21.0557C117.771 21.0557 117.631 21.0557 117.508 21.0557C117.385 21.0557 117.28 21.0382 117.175 21.0206C117.087 21.0031 116.999 20.9856 116.947 20.968C116.877 20.9505 116.824 20.9329 116.789 20.8979C116.736 20.8628 116.701 20.8277 116.684 20.7926C116.649 20.7576 116.631 20.7049 116.614 20.6348L111.791 6.91986C111.738 6.74447 111.703 6.62171 111.685 6.51648C111.685 6.41125 111.72 6.34109 111.791 6.28848C111.861 6.23586 111.966 6.20079 112.124 6.18325C112.282 6.16571 112.475 6.16571 112.738 6.16571C112.948 6.16571 113.123 6.16571 113.246 6.18325C113.369 6.20079 113.474 6.21833 113.544 6.2534C113.615 6.28848 113.667 6.32356 113.702 6.37617C113.737 6.42878 113.772 6.4814 113.807 6.56909L118.034 18.9862H118.052L122.173 6.58663C122.191 6.49894 122.226 6.42878 122.261 6.37617C122.296 6.32356 122.349 6.28848 122.419 6.2534C122.489 6.21833 122.594 6.20079 122.734 6.18325C122.875 6.16571 123.05 6.16571 123.278 6.16571C123.506 6.16571 123.699 6.18325 123.839 6.20079C123.98 6.21833 124.067 6.2534 124.12 6.30602C124.173 6.35863 124.19 6.42878 124.173 6.53401C124.155 6.63924 124.12 6.77955 124.067 6.9374L119.227 20.6348Z" fill="#FAAF5C"/>
<path d="M128.469 20.7751C128.469 20.8277 128.452 20.8628 128.417 20.8979C128.382 20.9329 128.329 20.968 128.259 20.9855C128.189 21.0031 128.084 21.0206 127.961 21.0382C127.838 21.0557 127.68 21.0557 127.487 21.0557C127.312 21.0557 127.154 21.0557 127.014 21.0382C126.891 21.0206 126.786 21.0031 126.698 20.9855C126.628 20.968 126.575 20.9329 126.54 20.8979C126.505 20.8628 126.488 20.8277 126.488 20.7751V9.7435C126.488 9.69089 126.505 9.65581 126.54 9.62074C126.575 9.58566 126.628 9.55058 126.716 9.53304C126.803 9.51551 126.891 9.49797 127.031 9.48043C127.172 9.46289 127.312 9.46289 127.487 9.46289C127.68 9.46289 127.838 9.46289 127.961 9.48043C128.084 9.49797 128.189 9.51551 128.259 9.53304C128.329 9.55058 128.382 9.58566 128.417 9.62074C128.452 9.65581 128.469 9.69089 128.469 9.7435V20.7751Z" fill="#FAAF5C"/>
<path d="M128.469 8.09485C128.469 8.09485 128.452 8.11239 128.417 8.11239C128.382 8.11239 128.329 8.12993 128.259 8.12993C128.189 8.12993 128.084 8.12993 127.961 8.14747C127.838 8.14747 127.68 8.14747 127.487 8.14747C127.312 8.14747 127.154 8.14747 127.014 8.14747C126.891 8.14747 126.786 8.14747 126.698 8.12993C126.628 8.12993 126.575 8.11239 126.54 8.11239C126.505 8.11239 126.488 8.09485 126.488 8.09485V6.06041C126.488 6.06041 126.505 6.04287 126.54 6.04287C126.575 6.04287 126.628 6.02533 126.716 6.02533C126.803 6.02533 126.891 6.02533 127.031 6.00779C127.172 5.99026 127.312 6.00779 127.487 6.00779C127.68 6.00779 127.838 6.00779 127.961 6.00779C128.084 6.00779 128.189 6.00779 128.259 6.02533C128.329 6.02533 128.382 6.04287 128.417 6.04287C128.452 6.04287 128.469 6.06041 128.469 6.06041V8.09485Z" fill="#FAAF5C"/>
<path d="M142.255 18.8984C142.255 19.0212 142.255 19.1264 142.237 19.2141C142.237 19.3018 142.22 19.3895 142.202 19.4597C142.185 19.5298 142.149 19.5824 142.132 19.635C142.097 19.6877 142.044 19.7578 141.974 19.828C141.904 19.8981 141.746 20.0209 141.501 20.1787C141.255 20.3366 140.957 20.4944 140.589 20.6347C140.22 20.775 139.817 20.9153 139.343 21.003C138.87 21.1083 138.361 21.1609 137.818 21.1609C136.853 21.1609 135.994 21.003 135.222 20.6873C134.45 20.3716 133.784 19.8981 133.24 19.2667C132.696 18.6354 132.275 17.8812 131.977 16.9517C131.679 16.0222 131.539 14.9874 131.539 13.7948C131.539 12.5671 131.697 11.4797 132.012 10.5151C132.328 9.55052 132.766 8.74376 133.345 8.07731C133.924 7.41085 134.59 6.90224 135.397 6.55148C136.186 6.20071 137.063 6.02533 138.046 6.02533C138.466 6.02533 138.887 6.06041 139.291 6.1481C139.694 6.23579 140.062 6.32348 140.413 6.44625C140.764 6.56902 141.062 6.70932 141.325 6.86717C141.588 7.02501 141.781 7.16532 141.886 7.25301C141.992 7.35824 142.062 7.42839 142.079 7.48101C142.114 7.53362 142.132 7.60378 142.149 7.67393C142.167 7.74408 142.185 7.83177 142.202 7.937C142.22 8.04223 142.22 8.14746 142.22 8.28777C142.22 8.44561 142.22 8.56838 142.202 8.67361C142.185 8.77884 142.167 8.86653 142.132 8.93668C142.097 9.00684 142.062 9.05945 142.027 9.09453C141.992 9.12961 141.939 9.14714 141.869 9.14714C141.764 9.14714 141.606 9.07699 141.43 8.91915C141.237 8.77884 140.992 8.60346 140.694 8.42807C140.396 8.25269 140.027 8.07731 139.589 7.937C139.15 7.7967 138.642 7.709 138.028 7.709C137.362 7.709 136.765 7.83177 136.239 8.09485C135.695 8.35792 135.239 8.74376 134.854 9.25237C134.468 9.76098 134.17 10.3748 133.959 11.1114C133.749 11.848 133.643 12.6899 133.643 13.6194C133.643 14.5489 133.749 15.3732 133.942 16.0923C134.134 16.8114 134.433 17.4077 134.818 17.8987C135.204 18.3898 135.66 18.7406 136.204 18.9861C136.748 19.2317 137.379 19.3544 138.081 19.3544C138.677 19.3544 139.186 19.2843 139.624 19.144C140.062 19.0037 140.431 18.8458 140.746 18.6529C141.062 18.4775 141.308 18.3197 141.501 18.1618C141.693 18.0215 141.851 17.9514 141.974 17.9514C142.027 17.9514 142.079 17.9689 142.114 17.9864C142.149 18.004 142.185 18.0566 142.202 18.1092C142.22 18.1794 142.237 18.2671 142.255 18.3723C142.255 18.5827 142.255 18.723 142.255 18.8984Z" fill="#FAAF5C"/>
<path d="M71.9086 14.0754C71.9787 14.0754 72.0489 14.0578 72.1015 14.0403C72.1541 14.0052 72.2067 13.9701 72.2418 13.9175C72.2769 13.8649 72.312 13.7772 72.3295 13.672C72.347 13.5668 72.3646 13.4615 72.3646 13.3212C72.3646 13.1809 72.347 13.0582 72.3295 12.9529C72.312 12.8477 72.2769 12.76 72.2418 12.7074C72.1892 12.6372 72.1366 12.5846 72.0664 12.5495C72.0138 12.5145 71.9437 12.5145 71.891 12.5145H68.664C68.5237 12.5145 68.4185 12.6197 68.4185 12.7249V13.8825C68.4185 14.0052 68.5237 14.0929 68.664 14.0929H71.9086V14.0754Z" fill="#FAAF5C"/>
<path d="M73.2419 19.7929C73.2244 19.6877 73.2069 19.6 73.1542 19.5474C73.1192 19.4772 73.0665 19.4421 73.0315 19.4071C72.9789 19.372 72.9262 19.3544 72.8736 19.3544H67.0158V15.3732V11.129V7.84932H72.7859C72.8386 7.84932 72.9087 7.83178 72.9438 7.79671C72.9789 7.76163 73.0315 7.72655 73.0665 7.6564C73.1016 7.58625 73.1192 7.51609 73.1367 7.41087C73.1542 7.30564 73.1718 7.18287 73.1718 7.0601C73.1718 6.90225 73.1542 6.77949 73.1367 6.67426C73.1192 6.56903 73.0841 6.48134 73.0665 6.41118C73.0315 6.34103 72.9964 6.28841 72.9438 6.27088C72.8912 6.2358 72.8386 6.21826 72.7859 6.21826H65.7882C65.6128 6.21826 65.4549 6.27088 65.2971 6.39364C65.1392 6.51641 65.0691 6.72687 65.0691 7.00748V20.1787C65.0691 20.4769 65.1392 20.6873 65.2971 20.7926C65.4549 20.9153 65.6128 20.968 65.7882 20.968H72.8736C72.9262 20.968 72.9964 20.9504 73.0315 20.9153C73.0841 20.8803 73.1192 20.8277 73.1542 20.775C73.1893 20.7049 73.2244 20.6172 73.2419 20.512C73.2595 20.4067 73.2595 20.284 73.2595 20.1612C73.2595 20.0209 73.2595 19.8981 73.2419 19.7929Z" fill="#FAAF5C"/>
<path d="M97.3217 14.0754C97.3918 14.0754 97.462 14.0578 97.5146 14.0403C97.5672 14.0052 97.6198 13.9701 97.6549 13.9175C97.69 13.8649 97.725 13.7772 97.7426 13.672C97.7601 13.5668 97.7777 13.4615 97.7777 13.3212C97.7777 13.1809 97.7601 13.0582 97.7426 12.9529C97.725 12.8477 97.69 12.76 97.6549 12.7074C97.6023 12.6372 97.5497 12.5846 97.4795 12.5495C97.4269 12.5145 97.3567 12.5145 97.3041 12.5145H94.0771C93.9368 12.5145 93.8315 12.6197 93.8315 12.7249V13.8825C93.8315 14.0052 93.9368 14.0929 94.0771 14.0929H97.3217V14.0754Z" fill="#FAAF5C"/>
<path d="M98.6721 19.7929C98.6546 19.6877 98.637 19.6 98.5844 19.5474C98.5493 19.4772 98.4967 19.4421 98.4617 19.4071C98.409 19.372 98.3564 19.3544 98.3038 19.3544H92.446V15.3732V11.129V7.84932H98.2161C98.2687 7.84932 98.3389 7.83178 98.374 7.79671C98.409 7.76163 98.4617 7.72655 98.4967 7.6564C98.5318 7.58625 98.5493 7.51609 98.5669 7.41087C98.5844 7.30564 98.602 7.18287 98.602 7.0601C98.602 6.90225 98.5844 6.77949 98.5669 6.67426C98.5493 6.56903 98.5143 6.48134 98.4967 6.41118C98.4617 6.34103 98.4266 6.28841 98.374 6.27088C98.3213 6.2358 98.2687 6.21826 98.2161 6.21826H91.2183C91.043 6.21826 90.8851 6.27088 90.7273 6.39364C90.5694 6.51641 90.4993 6.72687 90.4993 7.00748V20.1787C90.4993 20.4769 90.5694 20.6873 90.7273 20.7926C90.8851 20.9153 91.043 20.968 91.2183 20.968H98.3038C98.3564 20.968 98.4266 20.9504 98.4617 20.9153C98.5143 20.8803 98.5493 20.8277 98.5844 20.775C98.6195 20.7049 98.6546 20.6172 98.6721 20.512C98.6896 20.4067 98.6896 20.284 98.6896 20.1612C98.6896 20.0209 98.6896 19.8981 98.6721 19.7929Z" fill="#FAAF5C"/>
<path d="M151.708 14.0754C151.778 14.0754 151.848 14.0578 151.901 14.0403C151.953 14.0052 152.006 13.9701 152.041 13.9175C152.076 13.8649 152.111 13.7772 152.129 13.672C152.146 13.5668 152.164 13.4615 152.164 13.3212C152.164 13.1809 152.146 13.0582 152.129 12.9529C152.111 12.8477 152.076 12.76 152.041 12.7074C151.989 12.6372 151.936 12.5846 151.866 12.5495C151.813 12.5145 151.743 12.5145 151.69 12.5145H148.463C148.323 12.5145 148.218 12.6197 148.218 12.7249V13.8825C148.218 14.0052 148.323 14.0929 148.463 14.0929H151.708V14.0754Z" fill="#FAAF5C"/>
<path d="M153.041 19.7929C153.023 19.6877 153.005 19.6 152.953 19.5474C152.918 19.4772 152.865 19.4421 152.83 19.4071C152.777 19.372 152.725 19.3544 152.672 19.3544H146.814V15.3732V11.129V7.84932H152.585C152.637 7.84932 152.707 7.83178 152.742 7.79671C152.777 7.76163 152.83 7.72655 152.865 7.6564C152.9 7.58625 152.918 7.51609 152.935 7.41087C152.953 7.30564 152.97 7.18287 152.97 7.0601C152.97 6.90225 152.953 6.77949 152.935 6.67426C152.918 6.56903 152.883 6.48134 152.865 6.41118C152.83 6.34103 152.795 6.28841 152.742 6.27088C152.69 6.2358 152.637 6.21826 152.585 6.21826H145.587C145.411 6.21826 145.254 6.27088 145.096 6.39364C144.938 6.51641 144.868 6.72687 144.868 7.00748V20.1787C144.868 20.4769 144.938 20.6873 145.096 20.7926C145.254 20.9153 145.411 20.968 145.587 20.968H152.672C152.725 20.968 152.795 20.9504 152.83 20.9153C152.883 20.8803 152.918 20.8277 152.953 20.775C152.988 20.7049 153.023 20.6172 153.041 20.512C153.058 20.4067 153.058 20.284 153.058 20.1612C153.058 20.0209 153.058 19.8981 153.041 19.7929Z" fill="#FAAF5C"/>
<path d="M110.686 20.4243C110.651 20.319 110.58 20.1261 110.475 19.8455L109.16 16.6009C109.002 16.2326 108.862 15.8994 108.704 15.6012C108.546 15.3031 108.388 15.04 108.213 14.812C108.037 14.584 107.862 14.3911 107.652 14.2157C107.459 14.0579 107.231 13.9176 106.985 13.8123C107.424 13.6545 107.809 13.4791 108.16 13.2511C108.511 13.0231 108.809 12.7776 109.055 12.4619C109.3 12.1637 109.493 11.813 109.633 11.4271C109.774 11.0413 109.826 10.5853 109.826 10.0942C109.826 9.58559 109.756 9.11206 109.598 8.69114C109.458 8.27022 109.23 7.90192 108.932 7.56869C108.634 7.23546 108.265 6.97239 107.827 6.76193C107.389 6.55147 106.88 6.39363 106.319 6.2884C106.126 6.27086 105.898 6.25332 105.652 6.21824C105.407 6.2007 105.091 6.18317 104.723 6.18317H101.583C101.408 6.18317 101.25 6.23578 101.092 6.35855C100.934 6.48132 100.864 6.69178 100.864 6.97239V20.6347C100.864 20.6873 100.882 20.7575 100.917 20.7926C100.952 20.8452 101.005 20.8802 101.075 20.8978C101.145 20.9329 101.25 20.9504 101.373 20.9679C101.496 20.9855 101.653 21.003 101.846 21.003C102.039 21.003 102.197 20.9855 102.32 20.9679C102.443 20.9504 102.548 20.9329 102.618 20.8978C102.688 20.8627 102.741 20.8276 102.776 20.7926C102.811 20.7399 102.829 20.6873 102.829 20.6347V15.6188V14.4086V12.8302V11.3745V7.8493H104.477C104.863 7.8493 105.179 7.86684 105.424 7.88438C105.67 7.90192 105.88 7.93699 106.073 8.00715C106.687 8.18253 107.108 8.46314 107.371 8.86652C107.634 9.2699 107.757 9.76098 107.757 10.3397C107.757 10.6905 107.704 11.0237 107.581 11.3394C107.459 11.6376 107.283 11.9006 107.02 12.1286C106.775 12.3566 106.459 12.532 106.073 12.6548C105.705 12.7776 105.249 12.8477 104.74 12.8477H104.495C104.337 12.8477 104.214 12.9705 104.214 13.1283V14.1806C104.214 14.3209 104.319 14.4437 104.477 14.4612C104.793 14.4788 105.056 14.5489 105.301 14.6366C105.617 14.7769 105.898 14.9523 106.126 15.1978C106.354 15.4434 106.564 15.724 106.74 16.0572C106.915 16.3904 107.073 16.7588 107.231 17.1446L108.581 20.6172C108.616 20.7049 108.651 20.7926 108.686 20.8452C108.721 20.8978 108.792 20.9504 108.862 20.9855C108.932 21.0206 109.037 21.0381 109.16 21.0556C109.283 21.0732 109.44 21.0732 109.651 21.0732C109.879 21.0732 110.054 21.0732 110.195 21.0556C110.335 21.0381 110.44 21.0206 110.51 20.9855C110.58 20.9504 110.633 20.9153 110.651 20.8627C110.668 20.8101 110.686 20.7575 110.686 20.7049C110.738 20.6347 110.721 20.547 110.686 20.4243Z" fill="#FAAF5C"/>
</svg>
