<svg width="25" height="20" viewBox="0 0 25 20" fill="none" xmlns="http://www.w3.org/2000/svg">
<path d="M21.8546 0H3.14545C2.31122 0 1.51117 0.331937 0.92128 0.922789C0.331394 1.51364 0 2.31501 0 3.1506V16.8494C0 17.685 0.331394 18.4864 0.92128 19.0772C1.51117 19.6681 2.31122 20 3.14545 20H21.8546C22.6888 20 23.4888 19.6681 24.0787 19.0772C24.6686 18.4864 25 17.685 25 16.8494V3.1506C25 2.31501 24.6686 1.51364 24.0787 0.922789C23.4888 0.331937 22.6888 0 21.8546 0ZM3.14545 1.26024H21.8546C22.3308 1.25886 22.7897 1.43921 23.1379 1.7646C23.4861 2.08999 23.6976 2.53601 23.7292 3.01197C20.6215 4.67549 17.5013 6.3264 14.381 7.98992C13.9588 8.25489 13.5122 8.47857 13.0473 8.65785C12.6823 8.72999 12.3062 8.72348 11.9439 8.63873C11.5816 8.55399 11.2415 8.39296 10.9462 8.16635C9.15954 7.22117 7.37292 6.26339 5.59889 5.31821C4.16457 4.56207 2.70508 3.79332 1.27076 3.02457C1.29994 2.54659 1.51022 2.09779 1.85865 1.76988C2.20707 1.44196 2.66735 1.25967 3.14545 1.26024ZM23.7418 16.8494C23.7418 17.3508 23.543 17.8316 23.1891 18.1861C22.8351 18.5406 22.3551 18.7398 21.8546 18.7398H3.14545C2.64491 18.7398 2.16488 18.5406 1.81095 18.1861C1.45701 17.8316 1.25818 17.3508 1.25818 16.8494V4.45495C4.22748 6.01764 7.1842 7.60555 10.1535 9.18085C10.684 9.50663 11.2551 9.76087 11.852 9.93699C12.7257 10.0793 13.6211 9.89541 14.3684 9.42029C16.1928 8.46251 18.0045 7.49212 19.8289 6.53434C21.1374 5.82861 22.4333 5.14808 23.7418 4.45495V16.8494Z" fill="#FFB15C"/>
</svg>
