<svg width="22" height="23" viewBox="0 0 22 23" fill="none" xmlns="http://www.w3.org/2000/svg">
<path d="M13.9998 23C11.5451 22.9962 9.13426 22.3192 7.00853 21.0367C4.8828 19.7541 3.11666 17.911 1.88674 15.6916C0.656819 13.4722 0.00623214 10.9544 4.45524e-05 8.38994C-0.00614303 5.82547 0.632286 3.30424 1.85148 1.07842C2.01045 0.790535 2.23126 0.545157 2.49649 0.361625C2.76172 0.178093 3.06413 0.0614238 3.37988 0.0208123C3.70491 -0.026144 4.03595 0.00661187 4.34677 0.116486C4.65759 0.22636 4.93964 0.410333 5.1706 0.653833L9.03655 4.69384C9.23298 4.89878 9.38881 5.14216 9.49514 5.41006C9.60146 5.67797 9.65619 5.96514 9.65619 6.25516C9.65619 6.54518 9.60146 6.83236 9.49514 7.10026C9.38881 7.36817 9.23298 7.61155 9.03655 7.81648L8.67323 8.20247C8.2271 8.66967 7.97656 9.30266 7.97656 9.96258C7.97656 10.6225 8.2271 11.2555 8.67323 11.7227L10.7916 13.937C11.2457 14.3891 11.849 14.6413 12.4764 14.6413C13.1037 14.6413 13.707 14.3891 14.1612 13.937L14.5183 13.5638C14.9152 13.1503 15.4529 12.918 16.0135 12.918C16.574 12.918 17.1117 13.1503 17.5086 13.5638L21.3746 17.6026C21.6072 17.8445 21.783 18.1394 21.8881 18.4642C21.9933 18.789 22.0249 19.1349 21.9805 19.4746C21.9412 19.804 21.8293 20.1194 21.6536 20.396C21.478 20.6726 21.2433 20.9028 20.9681 21.0687C18.8475 22.3392 16.4445 23.0052 13.9998 23ZM3.66191 1.28814C3.62074 1.288 3.57961 1.29058 3.53875 1.29586C3.41158 1.31229 3.28979 1.3593 3.18295 1.43319C3.0761 1.50708 2.98711 1.60585 2.92296 1.72173C1.52727 4.26403 0.971241 7.21551 1.34067 10.1207C1.71011 13.0259 2.98447 15.7234 4.96711 17.7968C6.94975 19.8703 9.53046 21.2045 12.311 21.5935C15.0915 21.9825 17.9173 21.4047 20.3523 19.9494C20.4632 19.8823 20.5577 19.7893 20.6284 19.6777C20.6992 19.5661 20.7442 19.4389 20.76 19.3061C20.7788 19.1619 20.7655 19.0151 20.7211 18.8771C20.6766 18.7392 20.6023 18.6139 20.5038 18.5109L16.6379 14.4722C16.5559 14.3865 16.4585 14.3186 16.3514 14.2722C16.2443 14.2259 16.1294 14.202 16.0135 14.202C15.8975 14.202 15.7827 14.2259 15.6755 14.2722C15.5684 14.3186 15.4711 14.3865 15.3891 14.4722L15.0319 14.8453C14.3433 15.5317 13.4281 15.9146 12.4764 15.9146C11.5246 15.9146 10.6094 15.5317 9.92082 14.8453L7.79757 12.6272C7.12153 11.9184 6.74194 10.9586 6.74194 9.95808C6.74194 8.95751 7.12153 7.99773 7.79757 7.28897L8.16705 6.90298C8.24905 6.81732 8.31409 6.71562 8.35847 6.60369C8.40285 6.49177 8.42569 6.37181 8.42569 6.25066C8.42569 6.12951 8.40285 6.00955 8.35847 5.89763C8.31409 5.7857 8.24905 5.684 8.16705 5.59834L4.29987 1.56348C4.21618 1.47588 4.11672 1.40646 4.00723 1.3592C3.89774 1.31194 3.78038 1.28779 3.66191 1.28814Z" fill="#FFB15C"/>
</svg>
