<svg width="48" height="48" viewBox="0 0 48 48" fill="none" xmlns="http://www.w3.org/2000/svg">
<rect x="0.65" y="0.65" width="46.7" height="46.7" rx="23.35" stroke="white" stroke-width="1.3"/>
<path d="M21.5905 20.0035C21.7303 20.0071 21.8852 20.0143 22.0326 20.3242C22.1303 20.5305 22.2949 20.9104 22.429 21.2198C22.5334 21.4606 22.6193 21.6587 22.6407 21.6993C22.6898 21.7919 22.7201 21.8988 22.6559 22.0234C22.6483 22.0381 22.6412 22.0522 22.6342 22.0657C22.5828 22.167 22.5461 22.2391 22.4594 22.3333C22.4238 22.3721 22.3867 22.4146 22.3497 22.4569C22.2847 22.5314 22.2201 22.6053 22.1648 22.6576C22.0665 22.7501 21.9645 22.8499 22.0778 23.0352C22.1912 23.2204 22.5879 23.8296 23.1735 24.3212C23.803 24.8522 24.3504 25.076 24.6272 25.189C24.6809 25.211 24.7244 25.2288 24.7563 25.2439C24.9528 25.3365 25.0699 25.3222 25.1832 25.1976C25.2966 25.0728 25.6744 24.656 25.8066 24.4708C25.9351 24.2856 26.0673 24.3141 26.2487 24.3782C26.43 24.4423 27.3971 24.8912 27.5935 24.9838C27.6323 25.0021 27.6687 25.0186 27.7024 25.0339C27.839 25.096 27.9319 25.1382 27.9713 25.2011C28.0204 25.2795 28.0204 25.65 27.858 26.0846C27.6918 26.5192 26.8909 26.936 26.5282 26.9681C26.4938 26.9712 26.4597 26.9751 26.4245 26.9791C26.0921 27.0172 25.6702 27.0655 24.167 26.5049C22.3147 25.8149 21.092 24.1027 20.8448 23.7566C20.8253 23.7293 20.8119 23.7104 20.8047 23.7013L20.8005 23.696C20.6881 23.5534 20 22.6812 20 21.7813C20 20.9202 20.4477 20.472 20.6519 20.2675C20.6648 20.2545 20.6768 20.2426 20.6876 20.2315C20.8689 20.0463 21.0805 20 21.2127 20C21.345 20 21.4772 20 21.5905 20.0035Z" fill="white"/>
<path fill-rule="evenodd" clip-rule="evenodd" d="M14.1001 33.3314C14.0183 33.6284 14.2887 33.9025 14.5868 33.8247L19.1941 32.6213C20.6485 33.409 22.2859 33.8275 23.953 33.8275H23.958C29.444 33.8275 33.9159 29.3815 33.9159 23.9163C33.9159 21.2673 32.8819 18.7759 31.0022 16.9049C29.1224 15.034 26.6243 14 23.9579 14C18.472 14 14 18.446 14 23.9114C13.9994 25.65 14.4583 27.3582 15.3307 28.8645L14.1001 33.3314ZM16.7768 29.2629C16.8836 28.8752 16.8303 28.4608 16.6287 28.1127C15.8886 26.8348 15.4995 25.3855 15.5 23.9114C15.5 19.2816 19.2933 15.5 23.9579 15.5C26.2278 15.5 28.3455 16.377 29.944 17.9681C31.5407 19.5574 32.4159 21.6661 32.4159 23.9163C32.4159 28.5459 28.6227 32.3275 23.958 32.3275H23.953C22.5365 32.3275 21.1445 31.9718 19.9086 31.3023C19.574 31.1211 19.1832 31.0738 18.8151 31.17L16.0527 31.8915L16.7768 29.2629Z" fill="white"/>
</svg>
